<?xml version="1.0" encoding="UTF-8"?><svg xmlns="http://www.w3.org/2000/svg" viewBox="0 0 24 24"><g id="a"/><g id="b"/><g id="c"/><g id="d"><path d="M22,12c0-.36-.2-.7-.51-.87l-2.03-1.13,2.03-1.13c.31-.17,.51-.51,.51-.87s-.2-.7-.51-.87l-3-1.67-3-1.66-3-1.67c-.31-.17-.67-.17-.98,0L2.51,7.13c-.31,.17-.51,.51-.51,.87s.2,.7,.51,.87l2.03,1.13-2.03,1.13c-.31,.17-.51,.51-.51,.87s.2,.7,.51,.87l2.03,1.13-2.03,1.13c-.31,.17-.51,.51-.51,.87s.2,.7,.51,.87l9,5c.16,.09,.32,.13,.49,.13s.33-.04,.49-.13l9-5c.31-.17,.51-.51,.51-.87s-.2-.7-.51-.87l-2.03-1.13,2.03-1.13c.31-.17,.51-.51,.51-.87Zm-6.06-5.66l-6.94,3.84-.94-.52,6.94-3.84,.94,.52Zm-3.94-2.2l.94,.53-6.95,3.85-.93-.52,6.94-3.86Zm0,15.72l-6.94-3.86,1.54-.86,4.91,2.73c.16,.09,.32,.13,.49,.13s.33-.04,.49-.13l4.91-2.73,1.54,.86-6.94,3.86Zm4.96-6.75s-.02,0-.03,.01-.03,.02-.05,.03t-.02,.01l-4.86,2.7-4.86-2.7s-.01-.01-.02-.01c-.02,0-.04-.02-.05-.03s-.02-.01-.03-.01l-1.98-1.11,1.54-.86,1.91,1.06,3,1.67c.15,.09,.32,.13,.49,.13s.34-.04,.49-.13l4.91-2.73,1.54,.86-1.98,1.11Zm-.03-3.99s-.03,.02-.05,.03l-4.88,2.71-.94-.53,6.95-3.85,.93,.52-2.01,1.12Z"/></g></svg>