<svg width="17" height="17" viewBox="0 0 17 17" fill="none" xmlns="http://www.w3.org/2000/svg">
<path d="M16.936 2.76416C16.0834 1.05894 14.3695 0 12.4633 0H10.7202C8.41166 0 6.23744 0.872768 4.57462 2.46296L2.95537 2.6942C1.27061 2.93492 0 4.39941 0 6.10107V6.67857C0 7.01416 0.271851 7.28571 0.607143 7.28571H1.93334C2.18477 7.99091 2.85239 8.5 3.64286 8.5C4.43332 8.5 5.10098 7.99091 5.35241 7.28571H11.6476C11.8991 7.99091 12.5667 8.5 13.3571 8.5C14.2019 8.5 14.9076 7.9192 15.1127 7.13789L16.585 6.64715C16.8328 6.56473 17 6.3329 17 6.07143V3.03571C17 2.94144 16.9781 2.84835 16.936 2.76416ZM15.2385 2.42857H11.7062L12.0097 1.21429H12.4633C13.5411 1.21429 14.5341 1.66475 15.2385 2.42857ZM10.7581 1.21429L10.4545 2.42857H6.57959C7.80477 1.64115 9.22858 1.21429 10.7202 1.21429H10.7581ZM3.64286 7.28571C3.30816 7.28571 3.03571 7.01357 3.03571 6.67857C3.03571 6.34358 3.30816 6.07143 3.64286 6.07143C3.97756 6.07143 4.25 6.34358 4.25 6.67857C4.25 7.01357 3.97756 7.28571 3.64286 7.28571ZM13.3571 7.28571C13.0224 7.28571 12.75 7.01357 12.75 6.67857C12.75 6.34358 13.0224 6.07143 13.3571 6.07143C13.6918 6.07143 13.9643 6.34358 13.9643 6.67857C13.9643 7.01357 13.6918 7.28571 13.3571 7.28571ZM14.9956 5.89733C14.7021 5.28448 14.0809 4.85714 13.3571 4.85714C12.5667 4.85714 11.899 5.36623 11.6476 6.07143H5.35241C5.10098 5.36623 4.43332 4.85714 3.64286 4.85714C2.85239 4.85714 2.18474 5.36623 1.9333 6.07143H1.21458C1.22911 4.98284 2.04614 4.05078 3.12702 3.89662L4.90165 3.64286H15.7857V5.63386L14.9956 5.89733Z" fill="white"/>
<path d="M14.5714 9.10718C14.2361 9.10718 13.9643 9.37873 13.9643 9.71432V10.9286H13.1979C12.921 10.9286 12.6791 11.116 12.6101 11.384C12.5104 11.7694 12.3587 12.137 12.1583 12.4761C12.0171 12.7145 12.0557 13.0186 12.2516 13.2143L12.7933 13.7562L11.9344 14.6147L11.3928 14.0728C11.1971 13.8772 10.8939 13.8398 10.6549 13.9791C10.3149 14.1801 9.94728 14.3325 9.56219 14.4321C9.29419 14.5015 9.10713 14.7428 9.10713 15.0197V15.7857H7.89284V15.0197C7.89284 14.7428 7.70578 14.5015 7.43778 14.4321C7.05268 14.3325 6.68508 14.1801 6.34504 13.9791C6.1061 13.8386 5.80253 13.8772 5.60716 14.0728L5.06553 14.6147L4.2067 13.7562L4.74833 13.2143C4.94428 13.0186 4.98282 12.7145 4.84171 12.4761C4.64131 12.137 4.48952 11.7694 4.38991 11.384C4.32084 11.116 4.07893 10.9286 3.80204 10.9286H3.0357V9.71432C3.0357 9.37873 2.76385 9.10718 2.42855 9.10718C2.09326 9.10718 1.82141 9.37873 1.82141 9.71432V11.5357C1.82141 11.8713 2.09326 12.1429 2.42855 12.1429H3.35291C3.41694 12.3237 3.49016 12.5004 3.57228 12.673L2.91889 13.3269C2.68173 13.5641 2.68173 13.9483 2.91889 14.1855L4.63627 15.9026C4.86394 16.1302 5.26712 16.1302 5.4948 15.9026L6.14849 15.2492C6.32103 15.331 6.49801 15.4045 6.67855 15.4685V16.3929C6.67855 16.7285 6.9504 17 7.2857 17H9.71427C10.0496 17 10.3214 16.7285 10.3214 16.3929V15.4685C10.502 15.4045 10.6789 15.331 10.8515 15.2492L11.5052 15.9026C11.619 16.0164 11.7735 16.0804 11.9344 16.0804C12.0954 16.0804 12.2499 16.0164 12.3637 15.9026L14.0811 14.1855C14.3182 13.9483 14.3182 13.5641 14.0811 13.3269L13.4277 12.673C13.5098 12.5004 13.583 12.3237 13.6471 12.1429H14.5714C14.9067 12.1429 15.1786 11.8713 15.1786 11.5357V9.71432C15.1786 9.37873 14.9067 9.10718 14.5714 9.10718Z" fill="white"/>
<path d="M8.49998 12.75C9.83908 12.75 10.9286 11.6608 10.9286 10.3214C10.9286 8.982 9.83908 7.89282 8.49998 7.89282C7.16089 7.89282 6.07141 8.982 6.07141 10.3214C6.07141 11.6608 7.16089 12.75 8.49998 12.75ZM8.49998 9.10711C9.16968 9.10711 9.71427 9.652 9.71427 10.3214C9.71427 10.9908 9.16968 11.5357 8.49998 11.5357C7.83029 11.5357 7.2857 10.9908 7.2857 10.3214C7.2857 9.652 7.83029 9.10711 8.49998 9.10711Z" fill="white"/>
</svg>
