<svg xmlns="http://www.w3.org/2000/svg" width="12.859" height="11.776" viewBox="0 0 12.859 11.776">
  <g id="Group_103742" data-name="Group 103742" transform="translate(-1301.998 -4740.282)">
    <g id="Group_997" data-name="Group 997" transform="translate(1301.998 4740.282)">
      <path id="Path_1503" data-name="Path 1503" d="M2659.282,625a2.189,2.189,0,0,0-3.766-.8c-2.084,1.687-6.387,5.267-6.43,5.3a.529.529,0,1,0,.676.813c.043-.036,4.341-3.611,6.419-5.294a1.671,1.671,0,0,1,1.317-.49,1.177,1.177,0,0,1,.62.507l-3.205,2.589a.523.523,0,0,0-.163.227l-2.481,6.656a.529.529,0,0,0,.99.369l2.43-6.521,3.43-2.77a.528.528,0,0,0,.163-.592Z" transform="translate(-2646.456 -623.45)" fill="#fff"/>
      <path id="Path_1504" data-name="Path 1504" d="M2639.73,658.762a.529.529,0,0,0-.743-.079l-3.728,3.01-1.5-3.454a.529.529,0,0,0-.97.421l1.774,4.093a.529.529,0,0,0,.359.3.521.521,0,0,0,.126.015.529.529,0,0,0,.332-.118l4.269-3.447a.528.528,0,0,0,.078-.743Z" transform="translate(-2632.747 -652.714)" fill="#fff"/>
    </g>
  </g>
</svg>
